<svg width="0" height="0" class="hidden">
  <symbol xmlns="http://www.w3.org/2000/svg" viewBox="0 0 479.999 479.999" id="pickup">
    <path d="M328.345 0H151.653c-47.276 0-85.738 38.456-85.738 85.724v176.708c0 47.276 38.462 85.738 85.738 85.738h46.58l34.11 61.175a10.002 10.002 0 0 0 17.47-.003l34.081-61.172h44.451c47.276 0 85.738-38.462 85.738-85.738V85.724C414.085 38.456 375.622 0 328.345 0zm65.74 262.431c0 36.248-29.49 65.738-65.738 65.738H278.02c-3.627 0-6.97 1.964-8.736 5.133l-28.208 50.632-28.233-50.635a10 10 0 0 0-8.734-5.13h-52.454c-36.248 0-65.738-29.49-65.738-65.738V85.724c0-36.24 29.49-65.724 65.738-65.724h176.692c36.248 0 65.738 29.483 65.738 65.724v176.707z"></path>
    <path d="M316.592 377.691c-5.39-1.208-10.737 2.182-11.945 7.57-1.208 5.389 2.181 10.737 7.57 11.945 38.07 8.534 51.889 21.29 51.889 27.782 0 5.703-9.964 14.825-32.226 22.348C307.715 455.502 275.398 460 240.884 460c-34.509 0-66.821-4.498-90.984-12.664-22.26-7.523-32.224-16.645-32.224-22.348 0-7.152 14.508-18.479 46.362-26.446 5.358-1.34 8.615-6.77 7.275-12.128-1.34-5.357-6.769-8.615-12.127-7.275-39.665 9.921-61.51 26.204-61.51 45.848 0 36.116 72.043 55.012 143.208 55.012 71.173 0 143.223-18.896 143.223-55.012-.001-20.739-23.978-37.536-67.515-47.296z"></path>
  </symbol>
  <symbol xmlns="http://www.w3.org/2000/svg" viewBox="0 0 480 480" id="food">
    <path d="M133.745 276.19H343.35c5.522 0 10-4.477 10-10v-36.799c13.688-1.655 23.284-12.743 23.284-27.589V190.84c0-12.908-7.256-22.974-18.145-26.472-.776-30.553-12.938-59.361-34.446-81.423C301.62 59.946 271.9 47.28 240.358 47.28c-31.561 0-61.35 12.66-83.875 35.647-21.593 22.037-33.821 50.773-34.652 81.237-12.347 3.396-21.387 14.066-21.387 26.676v10.961c0 13.252 9.984 24.362 23.3 27.138v37.251c.001 5.522 4.479 10 10.001 10zm10-20v-26.577H333.35v26.577H143.745zm96.614-188.91c52.667 0 95.775 42.555 98.069 95.748H141.886c2.303-53.193 45.589-95.748 98.473-95.748zM120.445 201.801V190.84c0-4.234 4.486-7.812 9.796-7.812H349.76c4.562 0 6.875 2.628 6.875 7.812v10.961c0 5.184-2.313 7.811-6.875 7.811H130.241c-5.309.001-9.796-3.576-9.796-7.811z"></path>
    <path d="M210.069 96.77c-1.859-1.86-4.439-2.93-7.069-2.93s-5.21 1.07-7.07 2.93a10.076 10.076 0 0 0-2.93 7.07c0 2.63 1.069 5.21 2.93 7.07 1.86 1.86 4.44 2.93 7.07 2.93s5.21-1.07 7.069-2.93a10.077 10.077 0 0 0 2.931-7.07c0-2.63-1.07-5.21-2.931-7.07zm37.36 0c-1.86-1.86-4.44-2.93-7.07-2.93s-5.21 1.07-7.069 2.93a10.077 10.077 0 0 0-2.931 7.07c0 2.63 1.07 5.21 2.931 7.07a10.072 10.072 0 0 0 7.069 2.93c2.631 0 5.21-1.07 7.07-2.93 1.86-1.86 2.93-4.43 2.93-7.07 0-2.63-1.069-5.21-2.93-7.07zm-25.71 34.46c-2.64 0-5.21 1.07-7.07 2.93-1.869 1.86-2.93 4.44-2.93 7.07s1.061 5.21 2.93 7.07a10.06 10.06 0 0 0 7.07 2.93c2.63 0 5.21-1.07 7.07-2.93 1.859-1.86 2.93-4.44 2.93-7.07s-1.07-5.21-2.93-7.07-4.44-2.93-7.07-2.93zm37.34 0c-2.63 0-5.21 1.07-7.069 2.93a10.077 10.077 0 0 0-2.931 7.07 10.063 10.063 0 0 0 2.931 7.07 10.03 10.03 0 0 0 7.069 2.93c2.63 0 5.21-1.06 7.07-2.93 1.86-1.86 2.93-4.44 2.93-7.07s-1.069-5.21-2.93-7.07a10.076 10.076 0 0 0-7.07-2.93zm18.721-37.39c-2.641 0-5.211 1.07-7.07 2.93a10.076 10.076 0 0 0-2.93 7.07c0 2.63 1.069 5.21 2.93 7.07a10.072 10.072 0 0 0 7.07 2.93c2.63 0 5.21-1.07 7.069-2.93a10.077 10.077 0 0 0 2.931-7.07c0-2.63-1.07-5.21-2.931-7.07a10.072 10.072 0 0 0-7.069-2.93z"></path>
  </symbol>
</svg>
